<svg width="10" height="18" viewBox="0 0 10 18" fill="none" xmlns="http://www.w3.org/2000/svg">
<path fill-rule="evenodd" clip-rule="evenodd" d="M0.36631 8.11558C0.131971 8.34999 0.00032711 8.66787 0.00032711 8.99933C0.00032711 9.33078 0.131971 9.64867 0.36631 9.88308L7.43756 16.9543C7.55287 17.0737 7.6908 17.1689 7.8433 17.2345C7.99581 17.3 8.15983 17.3344 8.32581 17.3359C8.49178 17.3373 8.65638 17.3057 8.81 17.2429C8.96362 17.18 9.10319 17.0872 9.22055 16.9698C9.33792 16.8525 9.43074 16.7129 9.49359 16.5593C9.55644 16.4056 9.58806 16.241 9.58662 16.0751C9.58518 15.9091 9.5507 15.7451 9.48519 15.5926C9.41968 15.4401 9.32445 15.3021 9.20506 15.1868L3.01756 8.99933L9.20506 2.81183C9.43276 2.57607 9.55875 2.26032 9.5559 1.93258C9.55305 1.60483 9.42159 1.29132 9.18983 1.05956C8.95807 0.827793 8.64456 0.696331 8.31681 0.693483C7.98907 0.690636 7.67331 0.816629 7.43756 1.04433L0.36631 8.11558Z" fill="black"/>
</svg>
