<svg width="24" height="25" viewBox="0 0 24 25" fill="none" xmlns="http://www.w3.org/2000/svg">
<path d="M21.8865 7.08898L14.5532 3.05565C14.4449 2.99608 14.3233 2.96484 14.1997 2.96484C14.0761 2.96484 13.9546 2.99608 13.8463 3.05565L6.51294 7.08898C6.39796 7.15229 6.30208 7.24529 6.2353 7.35829C6.16853 7.47129 6.1333 7.60013 6.1333 7.73138C6.1333 7.86264 6.16853 7.99148 6.2353 8.10448C6.30208 8.21748 6.39796 8.31048 6.51294 8.37379L13.4664 12.1981V20.0587L11.24 18.8341L10.5331 20.1181L13.8463 21.9405C13.9546 22 14.0761 22.0313 14.1997 22.0313C14.3233 22.0313 14.4449 22 14.5532 21.9405L21.8865 17.9071C22.0016 17.8438 22.0975 17.7509 22.1643 17.6379C22.2311 17.5249 22.2664 17.396 22.2664 17.2647V7.73138C22.2664 7.60011 22.2311 7.47125 22.1643 7.35825C22.0975 7.24525 22.0016 7.15226 21.8865 7.08898ZM14.1997 4.53552L20.0114 7.73138L14.1997 10.9273L8.38807 7.73138L14.1997 4.53552ZM20.7997 16.8313L14.9331 20.058V12.1974L20.7997 8.97072V16.8313Z" fill="#FFCC00"/>
<path d="M7.59958 12.4979H1.73291V11.0312H7.59958V12.4979ZM9.06624 18.3646H3.19958V16.8979H9.06624V18.3646ZM10.5329 15.4313H4.66624V13.9646H10.5329V15.4313Z" fill="#FFCC00"/>
</svg>
