<svg width="21" height="21" viewBox="0 0 21 21" fill="none" xmlns="http://www.w3.org/2000/svg">
<path d="M6.02212 0.183594C6.20777 0.183594 6.38582 0.257344 6.5171 0.388619C6.64837 0.519894 6.72212 0.697942 6.72212 0.883594V2.19259H14.2391V0.892594C14.2391 0.706942 14.3129 0.528894 14.4441 0.397619C14.5754 0.266344 14.7535 0.192594 14.9391 0.192594C15.1248 0.192594 15.3028 0.266344 15.4341 0.397619C15.5654 0.528894 15.6391 0.706942 15.6391 0.892594V2.19259H18.3491C18.8794 2.19259 19.3879 2.40317 19.763 2.77803C20.138 3.15288 20.3489 3.66133 20.3491 4.19159V18.1846C20.3489 18.7149 20.138 19.2233 19.763 19.5982C19.3879 19.973 18.8794 20.1836 18.3491 20.1836H2.34912C1.81886 20.1836 1.3103 19.973 0.935261 19.5982C0.560217 19.2233 0.349386 18.7149 0.349121 18.1846L0.349121 4.19159C0.349386 3.66133 0.560217 3.15288 0.935261 2.77803C1.3103 2.40317 1.81886 2.19259 2.34912 2.19259H5.32212V0.882594C5.32239 0.697116 5.39625 0.519325 5.5275 0.388265C5.65875 0.257206 5.83664 0.183594 6.02212 0.183594ZM1.74912 7.92559V18.1846C1.74912 18.2634 1.76464 18.3414 1.79479 18.4142C1.82495 18.487 1.86914 18.5531 1.92486 18.6089C1.98057 18.6646 2.04672 18.7088 2.11951 18.7389C2.19231 18.7691 2.27033 18.7846 2.34912 18.7846H18.3491C18.4279 18.7846 18.5059 18.7691 18.5787 18.7389C18.6515 18.7088 18.7177 18.6646 18.7734 18.6089C18.8291 18.5531 18.8733 18.487 18.9034 18.4142C18.9336 18.3414 18.9491 18.2634 18.9491 18.1846V7.93959L1.74912 7.92559ZM7.01612 14.8026V16.4686H5.34912V14.8026H7.01612ZM11.1821 14.8026V16.4686H9.51612V14.8026H11.1821ZM15.3491 14.8026V16.4686H13.6821V14.8026H15.3491ZM7.01612 10.8256V12.4916H5.34912V10.8256H7.01612ZM11.1821 10.8256V12.4916H9.51612V10.8256H11.1821ZM15.3491 10.8256V12.4916H13.6821V10.8256H15.3491ZM5.32212 3.59159H2.34912C2.27033 3.59159 2.19231 3.60711 2.11951 3.63727C2.04672 3.66742 1.98057 3.71161 1.92486 3.76733C1.86914 3.82304 1.82495 3.88919 1.79479 3.96198C1.76464 4.03478 1.74912 4.1128 1.74912 4.19159V6.52659L18.9491 6.54059V4.19159C18.9491 4.1128 18.9336 4.03478 18.9034 3.96198C18.8733 3.88919 18.8291 3.82304 18.7734 3.76733C18.7177 3.71161 18.6515 3.66742 18.5787 3.63727C18.5059 3.60711 18.4279 3.59159 18.3491 3.59159H15.6391V4.52059C15.6391 4.70625 15.5654 4.88429 15.4341 5.01557C15.3028 5.14684 15.1248 5.22059 14.9391 5.22059C14.7535 5.22059 14.5754 5.14684 14.4441 5.01557C14.3129 4.88429 14.2391 4.70625 14.2391 4.52059V3.59159H6.72212V4.51159C6.72212 4.69725 6.64837 4.87529 6.5171 5.00657C6.38582 5.13784 6.20777 5.21159 6.02212 5.21159C5.83647 5.21159 5.65842 5.13784 5.52715 5.00657C5.39587 4.87529 5.32212 4.69725 5.32212 4.51159V3.59159Z" fill="#202020"/>
</svg>
