<svg width="21" height="21" viewBox="0 0 21 21" fill="none" xmlns="http://www.w3.org/2000/svg">
<path d="M17.479 18C15.7429 18 14.0276 17.6217 12.3332 16.865C10.6387 16.1083 9.09706 15.0353 7.70817 13.6458C6.31928 12.2564 5.2465 10.7147 4.48984 9.02083C3.73317 7.32694 3.35456 5.61167 3.354 3.875C3.354 3.625 3.43734 3.41667 3.604 3.25C3.77067 3.08333 3.979 3 4.229 3H7.604C7.79845 3 7.97206 3.06611 8.12484 3.19833C8.27762 3.33056 8.36789 3.48667 8.39567 3.66667L8.93734 6.58333C8.96511 6.80556 8.95817 6.99306 8.9165 7.14583C8.87484 7.29861 8.79845 7.43056 8.68734 7.54167L6.6665 9.58333C6.94428 10.0972 7.274 10.5936 7.65567 11.0725C8.03734 11.5514 8.45762 12.0133 8.9165 12.4583C9.34706 12.8889 9.79845 13.2883 10.2707 13.6567C10.7429 14.025 11.2429 14.3617 11.7707 14.6667L13.729 12.7083C13.854 12.5833 14.0173 12.4897 14.219 12.4275C14.4207 12.3653 14.6184 12.3478 14.8123 12.375L17.6873 12.9583C17.8818 13.0139 18.0415 13.1147 18.1665 13.2608C18.2915 13.4069 18.354 13.57 18.354 13.75V17.125C18.354 17.375 18.2707 17.5833 18.104 17.75C17.9373 17.9167 17.729 18 17.479 18ZM5.87484 8L7.24984 6.625L6.89567 4.66667H5.0415C5.11095 5.23611 5.20817 5.79861 5.33317 6.35417C5.45817 6.90972 5.63873 7.45833 5.87484 8ZM13.3332 15.4583C13.8748 15.6944 14.4271 15.8819 14.9898 16.0208C15.5526 16.1597 16.1184 16.25 16.6873 16.2917V14.4583L14.729 14.0625L13.3332 15.4583Z" fill="#202020" fill-opacity="0.8"/>
</svg>
