<svg width="25" height="24" viewBox="0 0 25 24" fill="none" xmlns="http://www.w3.org/2000/svg">
<path d="M11.8957 2.25C11.6357 2.25 11.3757 2.31 11.1257 2.4L3.76569 5.45C3.27646 5.65035 2.88681 6.03678 2.68241 6.52433C2.47801 7.01189 2.47559 7.56066 2.67569 8.05L7.63569 20C7.7822 20.3625 8.03173 20.674 8.35341 20.8962C8.6751 21.1183 9.05484 21.2414 9.44569 21.25C9.70569 21.25 9.97569 21.22 10.2357 21.1L17.6057 18.05C17.9614 17.899 18.2664 17.6492 18.4844 17.3302C18.7024 17.0111 18.8243 16.6363 18.8357 16.25C18.8457 16 18.7957 15.71 18.7057 15.45L13.7057 3.5C13.5648 3.1337 13.3167 2.81844 12.9938 2.59542C12.6708 2.37241 12.2881 2.25202 11.8957 2.25ZM15.3757 2.25L18.8257 10.6V4.25C18.8257 3.71957 18.615 3.21086 18.2399 2.83579C17.8648 2.46071 17.3561 2.25 16.8257 2.25M20.8357 3.79V12.82L23.2657 6.96C23.3653 6.71777 23.4161 6.45825 23.4153 6.19633C23.4144 5.93441 23.3618 5.67524 23.2605 5.43369C23.1592 5.19214 23.0113 4.97295 22.8251 4.78871C22.639 4.60446 22.4183 4.45877 22.1757 4.36M11.8957 4.22L16.8757 16.24L9.48569 19.3L4.50569 7.29" fill="black"/>
</svg>
