<svg width="12" height="12" viewBox="0 0 12 12" fill="none" xmlns="http://www.w3.org/2000/svg">
<path d="M11.4575 2.20207C11.5481 2.11463 11.6204 2.01002 11.6702 1.89434C11.7199 1.77865 11.7462 1.65422 11.7473 1.5283C11.7485 1.40237 11.7245 1.27748 11.6769 1.16091C11.6293 1.04433 11.5589 0.938414 11.4699 0.849327C11.3809 0.76024 11.275 0.689771 11.1585 0.642031C11.042 0.594291 10.9171 0.570236 10.7912 0.571271C10.6653 0.572305 10.5408 0.598408 10.4251 0.648056C10.3094 0.697704 10.2047 0.769903 10.1171 0.86044L6.31606 4.66026L2.51624 0.86044C2.42942 0.767263 2.32471 0.692529 2.20838 0.640694C2.09205 0.58886 1.96647 0.560988 1.83913 0.558741C1.71179 0.556495 1.5853 0.579919 1.46721 0.627617C1.34912 0.675316 1.24185 0.74631 1.1518 0.836366C1.06174 0.926422 0.990745 1.03369 0.943047 1.15178C0.895349 1.26987 0.871924 1.39636 0.874171 1.5237C0.876418 1.65104 0.90429 1.77662 0.956124 1.89295C1.00796 2.00928 1.08269 2.11399 1.17587 2.20081L4.97316 6.00189L1.17334 9.80171C1.00582 9.98149 0.91462 10.2193 0.918955 10.465C0.92329 10.7107 1.02282 10.9451 1.19658 11.1188C1.37034 11.2926 1.60476 11.3921 1.85045 11.3965C2.09614 11.4008 2.33393 11.3096 2.51371 11.1421L6.31606 7.34226L10.1159 11.1433C10.2957 11.3109 10.5334 11.4021 10.7791 11.3977C11.0248 11.3934 11.2592 11.2939 11.433 11.1201C11.6068 10.9463 11.7063 10.7119 11.7106 10.4662C11.715 10.2205 11.6238 9.98275 11.4562 9.80297L7.65896 6.00189L11.4575 2.20207Z" fill="#FF4747" fill-opacity="0.7"/>
</svg>
