<svg width="25" height="24" viewBox="0 0 25 24" fill="none" xmlns="http://www.w3.org/2000/svg">
<g clip-path="url(#clip0_6591_21741)">
<path d="M21.0032 14.4844H3.89954L0.5625 20.9116H24.5625L21.0032 14.4844Z" fill="#2F2F2F"/>
<path d="M22.0509 18.9069L20.4406 15.6008C19.7913 15.6028 19.1506 15.3726 19.0146 15.0469H5.90659C5.78179 15.3737 5.1507 15.6498 4.50144 15.6519L3.00635 18.9678C3.78207 18.9653 4.25581 19.3696 4.05546 19.8938H21.0339C20.8156 19.371 21.2751 18.9094 22.0509 18.9069Z" fill="#555555"/>
<path d="M16.0944 17.1263C15.8661 16.0486 14.2516 15.2676 12.4656 15.2735C10.6796 15.2791 9.09243 16.0705 8.90168 17.1494C8.68568 18.3707 10.3018 19.4801 12.5386 19.4728C14.7754 19.4655 16.3527 18.3461 16.0944 17.1263Z" fill="#FFEEAD"/>
<path d="M13.9484 17.6422C13.9254 17.3955 13.6858 17.1789 13.2634 17.0015C12.816 16.8128 12.5989 16.7218 12.5969 16.6348C12.5962 16.6095 12.6213 16.5805 12.6791 16.5805C12.7304 16.5803 12.8513 16.7176 12.8968 16.7174L13.7818 16.6891C13.8267 16.6853 13.8513 16.6707 13.8492 16.649C13.8202 16.3359 13.446 16.0753 12.8686 16.0129C12.8606 15.8163 12.86 15.7967 12.8108 15.7969L12.3621 15.7983C12.3374 15.7983 12.3193 15.8117 12.3193 15.8282L12.3207 16.0114C11.7404 16.0776 11.4163 16.3543 11.4046 16.6246C11.3933 16.8884 11.6285 17.1094 12.0042 17.2657C12.5355 17.4873 12.6999 17.5743 12.7029 17.6789C12.7043 17.7317 12.6436 17.7686 12.5547 17.7688C12.3969 17.7695 12.2869 17.6843 12.2387 17.5439C12.2252 17.5082 12.2047 17.5003 12.1642 17.5005L11.3048 17.5311C11.2708 17.5351 11.2499 17.5472 11.2491 17.5672C11.2255 18.051 11.5991 18.3442 12.341 18.4246C12.3433 18.6902 12.3435 18.7217 12.4009 18.7215L12.9189 18.7199C12.9477 18.7197 12.9756 18.7017 12.975 18.6838L12.9648 18.4271C13.6184 18.3457 13.9868 18.0539 13.9484 17.6422Z" fill="#2F2F2F"/>
<path d="M19.9684 16.4802C19.943 16.422 19.8367 16.3748 19.732 16.375L17.069 16.3836C16.9644 16.384 16.8914 16.4316 16.9068 16.49C16.9225 16.5486 17.0218 16.5968 17.1276 16.5964L19.8225 16.5879C19.9286 16.5875 19.9941 16.5388 19.9684 16.4802Z" fill="#2F2F2F"/>
<path d="M20.245 17.1205C20.2177 17.0579 20.1069 17.0074 19.9986 17.0078L17.2415 17.0166C17.1332 17.017 17.058 17.0681 17.0745 17.1307C17.0912 17.1936 17.1947 17.2453 17.3043 17.2449L20.0956 17.2359C20.2054 17.2357 20.2724 17.1835 20.245 17.1205Z" fill="#2F2F2F"/>
<path d="M20.5425 17.7931C20.513 17.7259 20.3974 17.6715 20.2852 17.6719L17.4273 17.6811C17.315 17.6815 17.2376 17.7364 17.2555 17.8036C17.2735 17.8714 17.3814 17.9269 17.4951 17.9265L20.3899 17.9173C20.5034 17.9169 20.5721 17.8607 20.5425 17.7931Z" fill="#2F2F2F"/>
<path d="M7.86256 16.4141L5.19961 16.4226C5.09505 16.423 4.99029 16.4708 4.9667 16.5293C4.94291 16.5881 5.01011 16.6363 5.11592 16.6359L7.81081 16.6274C7.91662 16.6269 8.01449 16.5783 8.02827 16.5195C8.04183 16.461 7.96733 16.4136 7.86256 16.4141Z" fill="#2F2F2F"/>
<path d="M7.71065 17.0469L4.95357 17.0559C4.84526 17.0563 4.73611 17.1076 4.71086 17.1702C4.6854 17.2332 4.75427 17.285 4.86383 17.2846L7.65514 17.2756C7.7647 17.2752 7.86655 17.223 7.88116 17.16C7.89577 17.0972 7.81896 17.0465 7.71065 17.0469Z" fill="#2F2F2F"/>
<path d="M7.54681 17.7109L4.68893 17.7201C4.57665 17.7205 4.4627 17.7756 4.43557 17.843C4.40823 17.9109 4.47877 17.9666 4.59251 17.9662L7.48733 17.957C7.60107 17.9566 7.70709 17.9004 7.72274 17.8326C7.73818 17.765 7.65909 17.7105 7.54681 17.7109Z" fill="#2F2F2F"/>
<path d="M19.9684 16.488C19.943 16.4298 19.8367 16.3826 19.732 16.3828L17.069 16.3914C16.9644 16.3918 16.8914 16.4394 16.9068 16.4978C16.9225 16.5564 17.0218 16.6047 17.1276 16.6042L19.8225 16.5957C19.9286 16.5953 19.9941 16.5466 19.9684 16.488Z" fill="white"/>
<path d="M20.245 17.1283C20.2177 17.0657 20.1069 17.0152 19.9986 17.0156L17.2415 17.0244C17.1332 17.0248 17.058 17.0759 17.0745 17.1385C17.0912 17.2014 17.1947 17.2531 17.3043 17.2527L20.0956 17.2437C20.2054 17.2435 20.2724 17.1913 20.245 17.1283Z" fill="white"/>
<path d="M20.5425 17.8009C20.513 17.7337 20.3974 17.6793 20.2852 17.6797L17.4273 17.6889C17.315 17.6893 17.2376 17.7442 17.2555 17.8114C17.2735 17.8792 17.3814 17.9347 17.4951 17.9343L20.3899 17.9251C20.5034 17.9247 20.5721 17.8686 20.5425 17.8009Z" fill="white"/>
<path d="M7.86256 16.4141L5.19961 16.4226C5.09505 16.423 4.99029 16.4708 4.9667 16.5293C4.94291 16.5881 5.01011 16.6363 5.11592 16.6359L7.81081 16.6274C7.91662 16.6269 8.01449 16.5783 8.02827 16.5195C8.04183 16.461 7.96733 16.4136 7.86256 16.4141Z" fill="white"/>
<path d="M7.71065 17.0469L4.95357 17.0559C4.84526 17.0563 4.73611 17.1076 4.71086 17.1702C4.6854 17.2332 4.75427 17.285 4.86383 17.2846L7.65514 17.2756C7.7647 17.2752 7.86655 17.223 7.88116 17.16C7.89577 17.0972 7.81896 17.0465 7.71065 17.0469Z" fill="white"/>
<path d="M7.54681 17.7109L4.68893 17.7201C4.57665 17.7205 4.4627 17.7756 4.43557 17.843C4.40823 17.9109 4.47877 17.9666 4.59251 17.9662L7.48733 17.957C7.60107 17.9566 7.70709 17.9004 7.72274 17.8326C7.73818 17.765 7.65909 17.7105 7.54681 17.7109Z" fill="white"/>
<path d="M21.0032 14.4922H17.2947C17.2918 14.6616 17.1912 14.8562 17.0202 15.0626H19.015C19.151 15.3885 19.7917 15.6185 20.441 15.6164L22.0513 18.9226C21.2755 18.9251 20.816 19.3867 21.0345 19.9097H4.05586C4.256 19.3855 3.78226 18.9812 3.00653 18.9837L4.50163 15.6676C5.15088 15.6655 5.78198 15.3892 5.90678 15.0626H7.70699C7.59262 14.9029 7.52605 14.751 7.52417 14.6145C7.52354 14.5734 7.53231 14.5329 7.5392 14.4922H3.89954L0.5625 20.9194H24.5625L21.0032 14.4922Z" fill="#2F2F2F"/>
<path d="M16.0938 17.1355C16.0231 16.8018 15.819 16.4965 15.5182 16.2344C14.888 16.6094 14.1811 16.9414 13.5544 17.1505C13.795 17.2964 13.9313 17.4623 13.9482 17.6449C13.9866 18.0567 13.6183 18.3485 12.9648 18.429L12.9751 18.6857C12.9757 18.7037 12.9477 18.7218 12.9189 18.7218L12.4009 18.7235C12.3436 18.7237 12.3431 18.6922 12.341 18.4267C11.5993 18.3464 11.2256 18.0532 11.2492 17.5694C11.2502 17.5494 11.2709 17.5373 11.3049 17.5333L12.1643 17.5026C12.2048 17.5026 12.2252 17.5103 12.2388 17.5462C12.287 17.6867 12.3972 17.7718 12.5548 17.7712C12.6439 17.771 12.7044 17.7341 12.7029 17.6813C12.7006 17.5953 12.5854 17.5201 12.2513 17.3736C11.4606 17.3167 10.3182 16.8845 9.35336 16.345C9.11441 16.5879 8.95308 16.8619 8.9007 17.1589C8.6847 18.3802 10.3008 19.4896 12.5376 19.4823C14.7749 19.4748 16.3522 18.3553 16.0938 17.1355Z" fill="white"/>
<path d="M13.9489 17.6428C13.9318 17.4602 13.7956 17.2943 13.5551 17.1484C13.134 17.2889 12.7492 17.3745 12.4501 17.3786C12.3873 17.3795 12.3207 17.3763 12.2522 17.3713C12.5864 17.5178 12.7014 17.5932 12.7039 17.6789C12.7053 17.7317 12.6446 17.7687 12.5557 17.7689C12.3979 17.7695 12.2879 17.6844 12.2397 17.5439C12.2262 17.5082 12.2057 17.5003 12.1652 17.5003L11.3058 17.531C11.2718 17.5349 11.2509 17.547 11.2501 17.5671C11.2263 18.0508 11.6001 18.3441 12.342 18.4244C12.3443 18.6901 12.3445 18.7216 12.4019 18.7212L12.9199 18.7195C12.9487 18.7193 12.9766 18.7013 12.976 18.6834L12.9658 18.4267C13.619 18.3464 13.9873 18.0546 13.9489 17.6428Z" fill="#2F2F2F"/>
<path d="M7.53947 14.4922C7.53258 14.5329 7.52382 14.5734 7.52445 14.6145C7.52632 14.751 7.5929 14.9027 7.70726 15.0626H17.0203C17.1914 14.8562 17.2918 14.6616 17.2947 14.4922H7.53947Z" fill="#2F2F2F"/>
<path d="M7.70752 15.0547C8.00262 15.4669 8.62682 15.9337 9.35434 16.3405C9.98397 15.7004 11.1708 15.2824 12.4656 15.2782C13.6985 15.2742 14.8491 15.6455 15.5188 16.2299C16.1524 15.8532 16.7061 15.4341 17.0206 15.0547H7.70752Z" fill="#2F2F2F"/>
<path d="M12.4652 15.2813C11.1707 15.2855 9.98364 15.7035 9.354 16.3435C10.3186 16.883 11.4612 17.3152 12.252 17.3722C12.1793 17.3403 12.0998 17.3063 12.0046 17.2666C11.629 17.1103 11.3938 16.8893 11.4051 16.6257C11.4165 16.3554 11.7406 16.0787 12.3212 16.0126L12.3198 15.8293C12.3196 15.8128 12.3379 15.7997 12.3626 15.7995L12.8113 15.798C12.8605 15.7978 12.8611 15.8174 12.8691 16.014C13.4463 16.0764 13.8205 16.3371 13.8497 16.6503C13.8518 16.672 13.8272 16.6866 13.7823 16.6904L12.8972 16.7188C12.852 16.719 12.7311 16.5817 12.6796 16.5819C12.6218 16.5821 12.5967 16.6111 12.5973 16.6363C12.5994 16.7234 12.8165 16.8146 13.2639 17.0032C13.3737 17.0491 13.4705 17.098 13.555 17.1493C14.1816 16.9402 14.8884 16.6082 15.5189 16.2331C14.8485 15.6486 13.698 15.2773 12.4652 15.2813Z" fill="#CCCCCC"/>
<path d="M12.8687 16.0207C12.8608 15.8241 12.8601 15.8045 12.8109 15.8047L12.3622 15.8062C12.3376 15.8062 12.3194 15.8195 12.3194 15.836L12.3209 16.0192C11.7405 16.0854 11.4164 16.3621 11.4047 16.6324C11.3934 16.896 11.6286 17.1172 12.0043 17.2733C12.0992 17.3127 12.1787 17.3469 12.2516 17.3789C12.32 17.3837 12.3866 17.387 12.4494 17.3862C12.7485 17.382 13.1333 17.2964 13.5545 17.156C13.4699 17.1047 13.3731 17.0558 13.2633 17.0099C12.8159 16.8212 12.5988 16.7303 12.5968 16.643C12.5961 16.6178 12.6212 16.589 12.679 16.5886C12.7305 16.5883 12.8512 16.7257 12.8967 16.7255L13.7817 16.6971C13.8266 16.6933 13.8512 16.6787 13.8491 16.657C13.8201 16.3437 13.4459 16.0831 12.8687 16.0207Z" fill="#555555"/>
<path d="M12.2636 3.07861C9.56518 3.11617 7.40852 5.34567 7.44629 8.05808C7.48406 10.7705 10.8925 15.7383 12.44 15.7166C13.8808 15.6966 17.2558 10.6342 17.218 7.92181C17.1803 5.20939 14.962 3.04104 12.2636 3.07861Z" fill="#202020"/>
<path d="M14.8741 8.02985C14.8544 6.61864 13.7003 5.49056 12.2965 5.51022C10.8927 5.52987 9.77064 6.68982 9.7904 8.10103C9.81015 9.51224 10.9642 10.6403 12.368 10.6207C13.7719 10.601 14.8939 9.44106 14.8741 8.02985Z" fill="white"/>
</g>
<defs>
<clipPath id="clip0_6591_21741">
<rect width="24" height="24" fill="white" transform="translate(0.5625)"/>
</clipPath>
</defs>
</svg>
