<svg width="20" height="21" viewBox="0 0 20 21" fill="none" xmlns="http://www.w3.org/2000/svg">
<path d="M16.25 5.08268L15.7333 13.4368C15.6017 15.571 15.5358 16.6385 15 17.406C14.7355 17.7853 14.3949 18.1054 14 18.346C13.2025 18.8327 12.1333 18.8327 9.995 18.8327C7.85333 18.8327 6.7825 18.8327 5.98333 18.3452C5.58824 18.1041 5.24768 17.7834 4.98333 17.4035C4.44833 16.6352 4.38333 15.566 4.255 13.4285L3.75 5.08268M2.5 5.08268H17.5M13.38 5.08268L12.8108 3.90935C12.4333 3.12935 12.2442 2.74018 11.9183 2.49685C11.846 2.44295 11.7693 2.39501 11.6892 2.35352C11.3283 2.16602 10.895 2.16602 10.0292 2.16602C9.14083 2.16602 8.69667 2.16602 8.32917 2.36102C8.24793 2.40452 8.17044 2.4547 8.0975 2.51102C7.76833 2.76352 7.58417 3.16768 7.21583 3.97518L6.71083 5.08268" stroke="#FD6161" stroke-width="1.5" stroke-linecap="round" stroke-linejoin="round"/>
</svg>
