<svg width="21" height="21" viewBox="0 0 21 21" fill="none" xmlns="http://www.w3.org/2000/svg">
<path d="M4.18717 17.1654C3.72884 17.1654 3.33662 17.0023 3.01051 16.6762C2.6844 16.3501 2.52106 15.9576 2.52051 15.4987V5.4987C2.52051 5.04036 2.68384 4.64814 3.01051 4.32203C3.33717 3.99592 3.7294 3.83259 4.18717 3.83203H17.5205C17.9788 3.83203 18.3713 3.99536 18.698 4.32203C19.0247 4.6487 19.1877 5.04092 19.1872 5.4987V15.4987C19.1872 15.957 19.0241 16.3495 18.698 16.6762C18.3719 17.0029 17.9794 17.1659 17.5205 17.1654H4.18717ZM10.8538 11.332L4.18717 7.16536V15.4987H17.5205V7.16536L10.8538 11.332ZM10.8538 9.66536L17.5205 5.4987H4.18717L10.8538 9.66536ZM4.18717 7.16536V5.4987V15.4987V7.16536Z" fill="#202020" fill-opacity="0.8"/>
</svg>
