<svg width="25" height="24" viewBox="0 0 25 24" fill="none" xmlns="http://www.w3.org/2000/svg">
<path d="M6.633 21.0003C5.455 21.0003 4.5 20.0203 4.5 18.8103V10.0083C4.5 9.34328 4.795 8.71328 5.3 8.29828L11.167 3.48028C11.5419 3.16986 12.0133 3 12.5 3C12.9867 3 13.4581 3.16986 13.833 3.48028L19.699 8.29828C20.205 8.71328 20.5 9.34328 20.5 10.0083V18.8103C20.5 20.0203 19.545 21.0003 18.367 21.0003H6.633Z" stroke="#202020" stroke-width="1.5" stroke-linecap="round" stroke-linejoin="round"/>
<path d="M10 21V15.5C10 14.9696 10.2107 14.4609 10.5858 14.0858C10.9609 13.7107 11.4696 13.5 12 13.5H13C13.5304 13.5 14.0391 13.7107 14.4142 14.0858C14.7893 14.4609 15 14.9696 15 15.5V21" stroke="#202020" stroke-width="1.5" stroke-linecap="round" stroke-linejoin="round"/>
</svg>
