<svg width="25" height="24" viewBox="0 0 25 24" fill="none" xmlns="http://www.w3.org/2000/svg">
<path d="M12.25 21.75C16 16.5 19 12 19 9C19 7.20979 18.2888 5.4929 17.023 4.22703C15.7571 2.96116 14.0402 2.25 12.25 2.25C10.4598 2.25 8.7429 2.96116 7.47703 4.22703C6.21116 5.4929 5.5 7.20979 5.5 9C5.5 12 8.5 16.5 12.25 21.75Z" stroke="#202020"/>
<path d="M15.25 9C15.25 9.79565 14.9339 10.5587 14.3713 11.1213C13.8087 11.6839 13.0456 12 12.25 12C11.4544 12 10.6913 11.6839 10.1287 11.1213C9.56607 10.5587 9.25 9.79565 9.25 9C9.25 8.20435 9.56607 7.44129 10.1287 6.87868C10.6913 6.31607 11.4544 6 12.25 6C13.0456 6 13.8087 6.31607 14.3713 6.87868C14.9339 7.44129 15.25 8.20435 15.25 9Z" stroke="#202020"/>
</svg>
