<svg width="17" height="16" viewBox="0 0 17 16" fill="none" xmlns="http://www.w3.org/2000/svg">
<path d="M8.97412 14.5C11.4741 11 13.4741 8 13.4741 6C13.4741 4.80653 13 3.66193 12.1561 2.81802C11.3122 1.97411 10.1676 1.5 8.97412 1.5C7.78065 1.5 6.63605 1.97411 5.79214 2.81802C4.94823 3.66193 4.47412 4.80653 4.47412 6C4.47412 8 6.47412 11 8.97412 14.5Z" stroke="#1DAC00"/>
<path d="M10.9741 6C10.9741 6.53043 10.7634 7.03914 10.3883 7.41421C10.0133 7.78929 9.50455 8 8.97412 8C8.44369 8 7.93498 7.78929 7.55991 7.41421C7.18483 7.03914 6.97412 6.53043 6.97412 6C6.97412 5.46957 7.18483 4.96086 7.55991 4.58579C7.93498 4.21071 8.44369 4 8.97412 4C9.50455 4 10.0133 4.21071 10.3883 4.58579C10.7634 4.96086 10.9741 5.46957 10.9741 6Z" stroke="#1DAC00"/>
</svg>
