<svg width="24" height="25" viewBox="0 0 24 25" fill="none" xmlns="http://www.w3.org/2000/svg">
<path d="M12 3.44922C12.1989 3.44922 12.3897 3.52824 12.5303 3.66889C12.671 3.80954 12.75 4.00031 12.75 4.19922C12.75 4.39813 12.671 4.5889 12.5303 4.72955C12.3897 4.8702 12.1989 4.94922 12 4.94922C10.0772 4.94922 8.23311 5.71306 6.87348 7.07269C5.51384 8.43233 4.75 10.2764 4.75 12.1992C4.75 14.122 5.51384 15.9661 6.87348 17.3257C8.23311 18.6854 10.0772 19.4492 12 19.4492C12.1989 19.4492 12.3897 19.5282 12.5303 19.6689C12.671 19.8095 12.75 20.0003 12.75 20.1992C12.75 20.3981 12.671 20.5889 12.5303 20.7295C12.3897 20.8702 12.1989 20.9492 12 20.9492C9.67936 20.9492 7.45376 20.0273 5.81282 18.3864C4.17187 16.7455 3.25 14.5199 3.25 12.1992C3.25 9.87857 4.17187 7.65298 5.81282 6.01203C7.45376 4.37109 9.67936 3.44922 12 3.44922Z" fill="#FF4747"/>
<path d="M16.47 9.73004C16.3375 9.58787 16.2654 9.39982 16.2688 9.20552C16.2723 9.01122 16.351 8.82583 16.4884 8.68842C16.6258 8.55101 16.8112 8.4723 17.0055 8.46887C17.1998 8.46544 17.3878 8.53756 17.53 8.67004L20.53 11.67C20.6705 11.8107 20.7493 12.0013 20.7493 12.2C20.7493 12.3988 20.6705 12.5894 20.53 12.73L17.53 15.73C17.4613 15.8037 17.3785 15.8628 17.2865 15.9038C17.1945 15.9448 17.0952 15.9669 16.9945 15.9686C16.8938 15.9704 16.7938 15.9519 16.7004 15.9142C16.607 15.8764 16.5222 15.8203 16.451 15.7491C16.3797 15.6779 16.3236 15.593 16.2859 15.4996C16.2482 15.4063 16.2296 15.3062 16.2314 15.2055C16.2332 15.1048 16.2552 15.0055 16.2962 14.9135C16.3372 14.8215 16.3963 14.7387 16.47 14.67L18.19 12.95H10C9.80109 12.95 9.61032 12.871 9.46967 12.7304C9.32902 12.5897 9.25 12.399 9.25 12.2C9.25 12.0011 9.32902 11.8104 9.46967 11.6697C9.61032 11.5291 9.80109 11.45 10 11.45H18.19L16.47 9.73004Z" fill="#FF4747"/>
</svg>
