<svg width="25" height="24" viewBox="0 0 25 24" fill="none" xmlns="http://www.w3.org/2000/svg">
<g clip-path="url(#clip0_3889_6394)">
<path d="M22.2056 9V19M6.20557 9V19M3.20557 9V19M19.2056 9V19M2.70557 21H22.7056M0.705566 23.5H24.7056M12.7056 11H11.7056C11.4403 11 11.186 11.1054 10.9985 11.2929C10.8109 11.4804 10.7056 11.7348 10.7056 12V12.375C10.7056 12.5914 10.7757 12.8019 10.9056 12.975C11.0354 13.1481 11.2179 13.2744 11.4256 13.335L13.9856 14.082C14.1933 14.1426 14.3757 14.2689 14.5056 14.442C14.6354 14.6151 14.7056 14.8256 14.7056 15.042V16C14.7056 16.2652 14.6002 16.5196 14.4127 16.7071C14.2251 16.8946 13.9708 17 13.7056 17H12.7056M12.7056 11H13.7056C13.9708 11 14.2251 11.1054 14.4127 11.2929C14.6002 11.4804 14.7056 11.7348 14.7056 12V12.5M12.7056 11V9M12.7056 17H11.7056C11.4403 17 11.186 16.8946 10.9985 16.7071C10.8109 16.5196 10.7056 16.2652 10.7056 16V15.5M12.7056 17V19M24.2056 6.25V7H1.20557V6.25C6.20557 4.5 9.20557 3 12.4556 0.5H12.9556C16.2056 3 19.2056 4.5 24.2056 6.25Z" stroke="black"/>
</g>
<defs>
<clipPath id="clip0_3889_6394">
<rect width="24" height="24" fill="white" transform="translate(0.705566)"/>
</clipPath>
</defs>
</svg>
