<svg width="25" height="25" viewBox="0 0 25 25" fill="none" xmlns="http://www.w3.org/2000/svg">
<path d="M2.75 21.9531H22.25M4.25 3.95312V21.9531M14.75 3.95312V21.9531M20.75 8.45312V21.9531M7.25 7.70312H8M7.25 10.7031H8M7.25 13.7031H8M11 7.70312H11.75M11 10.7031H11.75M11 13.7031H11.75M7.25 21.9531V18.5781C7.25 17.9571 7.754 17.4531 8.375 17.4531H10.625C11.246 17.4531 11.75 17.9571 11.75 18.5781V21.9531M3.5 3.95312H15.5M14.75 8.45312H21.5M17.75 12.2031H17.758V12.2111H17.75V12.2031ZM17.75 15.2031H17.758V15.2111H17.75V15.2031ZM17.75 18.2031H17.758V18.2111H17.75V18.2031Z" stroke="#202020" stroke-linecap="round" stroke-linejoin="round"/>
</svg>
