<svg width="15" height="14" viewBox="0 0 15 14" fill="none" xmlns="http://www.w3.org/2000/svg">
<path d="M11.1251 7.58073H8.20841V10.4974C8.20841 10.6521 8.14696 10.8005 8.03756 10.9099C7.92816 11.0193 7.77979 11.0807 7.62508 11.0807C7.47037 11.0807 7.322 11.0193 7.2126 10.9099C7.10321 10.8005 7.04175 10.6521 7.04175 10.4974V7.58073H4.12508C3.97037 7.58073 3.822 7.51927 3.7126 7.40987C3.60321 7.30048 3.54175 7.15211 3.54175 6.9974C3.54175 6.84269 3.60321 6.69431 3.7126 6.58492C3.822 6.47552 3.97037 6.41406 4.12508 6.41406H7.04175V3.4974C7.04175 3.34269 7.10321 3.19431 7.2126 3.08492C7.322 2.97552 7.47037 2.91406 7.62508 2.91406C7.77979 2.91406 7.92816 2.97552 8.03756 3.08492C8.14696 3.19431 8.20841 3.34269 8.20841 3.4974V6.41406H11.1251C11.2798 6.41406 11.4282 6.47552 11.5376 6.58492C11.647 6.69431 11.7084 6.84269 11.7084 6.9974C11.7084 7.15211 11.647 7.30048 11.5376 7.40987C11.4282 7.51927 11.2798 7.58073 11.1251 7.58073Z" fill="#202020" fill-opacity="0.8"/>
</svg>
