<svg width="21" height="21" viewBox="0 0 21 21" fill="none" xmlns="http://www.w3.org/2000/svg">
<path d="M7.73421 10.75H13.5675M3.15088 8.58333C3.15088 6.71667 3.15088 5.78333 3.51421 5.07C3.83379 4.44282 4.3437 3.93291 4.97088 3.61333C5.68421 3.25 6.61755 3.25 8.48421 3.25H12.8175C14.6842 3.25 15.6175 3.25 16.3309 3.61333C16.9581 3.93291 17.468 4.44282 17.7875 5.07C18.1509 5.78333 18.1509 6.71667 18.1509 8.58333V12.9167C18.1509 14.7833 18.1509 15.7167 17.7875 16.43C17.468 17.0572 16.9581 17.5671 16.3309 17.8867C15.6175 18.25 14.6842 18.25 12.8175 18.25H8.48421C6.61755 18.25 5.68421 18.25 4.97088 17.8867C4.3437 17.5671 3.83379 17.0572 3.51421 16.43C3.15088 15.7167 3.15088 14.7833 3.15088 12.9167V8.58333Z" stroke="#FD5D5D" stroke-width="1.5" stroke-linecap="round" stroke-linejoin="round"/>
</svg>
