<svg width="25" height="25" viewBox="0 0 25 25" fill="none" xmlns="http://www.w3.org/2000/svg">
<path d="M6.633 21.0003C5.455 21.0003 4.5 20.0203 4.5 18.8103V10.0083C4.5 9.34328 4.795 8.71328 5.3 8.29828L11.167 3.48028C11.5419 3.16986 12.0133 3 12.5 3C12.9867 3 13.4581 3.16986 13.833 3.48028L19.699 8.29828C20.205 8.71328 20.5 9.34328 20.5 10.0083V18.8103C20.5 20.0203 19.545 21.0003 18.367 21.0003H6.633Z" fill="#FFCC00" stroke="#FFCC00" stroke-opacity="0.7" stroke-width="1.5" stroke-linecap="round" stroke-linejoin="round"/>
<path d="M10 21.8437V15.725C10 15.1349 10.2107 14.569 10.5858 14.1517C10.9609 13.7344 11.4696 13.5 12 13.5H13C13.5304 13.5 14.0391 13.7344 14.4142 14.1517C14.7893 14.569 15 15.1349 15 15.725V21.8437" fill="#FBDC60"/>
<path d="M10 21.8437V15.725C10 15.1349 10.2107 14.569 10.5858 14.1517C10.9609 13.7344 11.4696 13.5 12 13.5H13C13.5304 13.5 14.0391 13.7344 14.4142 14.1517C14.7893 14.569 15 15.1349 15 15.725V21.8437" stroke="#FFF8DB" stroke-width="1.5" stroke-linecap="round" stroke-linejoin="round"/>
<line x1="1.60754" y1="24.1367" x2="23.4087" y2="24.1367" stroke="#FFCC00" stroke-linecap="round"/>
</svg>
