<svg width="24" height="25" viewBox="0 0 24 25" fill="none" xmlns="http://www.w3.org/2000/svg">
<path d="M21.1767 14.8233L21.1768 14.8234C21.2236 14.8702 21.25 14.9337 21.25 15C21.25 15 21.25 15.0001 21.25 15.0001V17.25C21.25 17.3163 21.2237 17.3799 21.1768 17.4268C21.1299 17.4737 21.0663 17.5 21 17.5H15.75H15.25V18V18.75C15.25 19.612 14.9076 20.4386 14.2981 21.0481C13.6886 21.6576 12.862 22 12 22C11.138 22 10.3114 21.6576 9.7019 21.0481C9.09241 20.4386 8.75 19.612 8.75 18.75V18V17.5H8.25H3C2.9337 17.5 2.87011 17.4737 2.82322 17.4268C2.77634 17.3799 2.75 17.3163 2.75 17.25V15.0001C2.75 15.0001 2.75 15 2.75 15C2.75004 14.9337 2.77639 14.8702 2.82325 14.8234L2.8233 14.8233L4.85355 12.7931L5 12.6466V12.4395V9.75025C5.00226 8.0155 5.64763 6.34319 6.81134 5.05664C7.97513 3.77001 9.57466 2.9606 11.3006 2.78493L11.75 2.73919V2.2875V1.25H12.25V2.2875V2.73919L12.6994 2.78493C14.4253 2.9606 16.0249 3.77001 17.1887 5.05664C18.3525 6.34328 18.9978 8.01574 19 9.75063V12.4395V12.6466L19.1464 12.7931L21.1767 14.8233ZM9.75 17.5H9.25V18V18.75C9.25 19.4793 9.53973 20.1788 10.0555 20.6945C10.5712 21.2103 11.2707 21.5 12 21.5C12.7293 21.5 13.4288 21.2103 13.9445 20.6945C14.4603 20.1788 14.75 19.4793 14.75 18.75V18V17.5H14.25H9.75Z" fill="#FFCC00" stroke="#FFDA42"/>
<line x1="1.10742" y1="24.1367" x2="22.9086" y2="24.1367" stroke="#FFCC00" stroke-linecap="round"/>
</svg>
