<svg width="24" height="26" viewBox="0 0 24 26" fill="none" xmlns="http://www.w3.org/2000/svg">
<path d="M15.3916 13.8538L15.3914 13.8545C15.199 14.6079 14.7612 15.2757 14.1471 15.7526C13.533 16.2295 12.7776 16.4883 12.0001 16.4883L15.3916 13.8538ZM15.3916 13.8538C15.4561 13.5996 15.6331 13.4883 15.75 13.4883H18.75C19.2141 13.4883 19.6592 13.6727 19.9874 14.0008C20.3156 14.329 20.5 14.7742 20.5 15.2383V19.7383C20.5 20.2024 20.3156 20.6475 19.9874 20.9757C19.6592 21.3039 19.2141 21.4883 18.75 21.4883H5.25C4.78587 21.4883 4.34075 21.3039 4.01256 20.9757C3.68437 20.6475 3.5 20.2024 3.5 19.7383V15.2383C3.5 14.7742 3.68437 14.329 4.01256 14.0008C4.34075 13.6727 4.78587 13.4883 5.25 13.4883H8.25C8.36695 13.4883 8.54387 13.5996 8.60836 13.8538L8.60856 13.8545M15.3916 13.8538L8.60856 13.8545M8.60856 13.8545C8.801 14.6079 9.23883 15.2757 9.85295 15.7526M8.60856 13.8545L9.85295 15.7526M5.25027 10.2383C4.6541 10.238 4.06502 10.3442 3.51017 10.5499C3.55292 10.155 3.7291 9.78431 4.01256 9.50084C4.34075 9.17266 4.78587 8.98828 5.25 8.98828H18.75C19.2141 8.98828 19.6592 9.17266 19.9874 9.50084C20.2707 9.78415 20.4469 10.1546 20.4898 10.5492C19.9474 10.3481 19.3608 10.2383 18.75 10.2383H5.25027ZM5.25027 10.2383L5.25 10.7383M5.25027 10.2383H5.25V10.7383M5.25 10.7383C4.64706 10.738 4.05216 10.8588 3.5 11.0915L5.25 10.7383ZM9.85295 15.7526C10.467 16.2295 11.2224 16.4883 11.9999 16.4883L9.85295 15.7526ZM3.51024 6.04919C3.55312 5.6546 3.72925 5.28415 4.01256 5.00084C4.34075 4.67266 4.78587 4.48828 5.25 4.48828H18.75C19.2141 4.48828 19.6592 4.67266 19.9874 5.00084C20.2709 5.28431 20.4471 5.65502 20.4898 6.04985C19.9351 5.84427 19.3461 5.738 18.75 5.73828C18.7499 5.73828 18.7498 5.73828 18.7497 5.73828L5.25 5.73828C4.63921 5.73828 4.05258 5.8481 3.51024 6.04919Z" fill="#FFCC00" stroke="#FFDA42"/>
<line x1="1.10742" y1="25.125" x2="22.9086" y2="25.125" stroke="#FFCC00" stroke-linecap="round"/>
</svg>
