<svg width="24" height="24" viewBox="0 0 24 24" fill="none" xmlns="http://www.w3.org/2000/svg">
<path d="M20.6537 3H3.346C2.88697 3 2.44675 3.18235 2.12216 3.50693C1.79758 3.83151 1.61523 4.27174 1.61523 4.73077V6.26769C2.08894 5.83782 2.70633 5.60074 3.346 5.60308V4.73077H20.6537V5.60308C21.2934 5.60074 21.9108 5.83782 22.3845 6.26769V4.73077C22.3845 4.27174 22.2021 3.83151 21.8775 3.50693C21.553 3.18235 21.1127 3 20.6537 3ZM20.6537 6.46154H3.346C2.88697 6.46154 2.44675 6.64389 2.12216 6.96847C1.79758 7.29305 1.61523 7.73328 1.61523 8.19231V9.72923C2.08894 9.29936 2.70633 9.06228 3.346 9.06462V8.19231H20.6537V9.06462C21.2934 9.06228 21.9108 9.29936 22.3845 9.72923V8.19231C22.3845 7.73328 22.2021 7.29305 21.8775 6.96847C21.553 6.64389 21.1127 6.46154 20.6537 6.46154ZM20.6537 9.92308H15.4614C15.4289 10.8107 15.0467 11.6494 14.3983 12.2564C13.7498 12.8633 12.8877 13.1893 11.9998 13.1631C11.112 13.1893 10.2499 12.8633 9.60143 12.2564C8.95298 11.6494 8.57082 10.8107 8.53831 9.92308H3.346C2.88697 9.92308 2.44675 10.1054 2.12216 10.43C1.79758 10.7546 1.61523 11.1948 1.61523 11.6538V19.2692C1.61523 19.7283 1.79758 20.1685 2.12216 20.4931C2.44675 20.8177 2.88697 21 3.346 21H20.6537C21.1127 21 21.553 20.8177 21.8775 20.4931C22.2021 20.1685 22.3845 19.7283 22.3845 19.2692V11.6538C22.3845 11.1948 22.2021 10.7546 21.8775 10.43C21.553 10.1054 21.1127 9.92308 20.6537 9.92308ZM20.6537 19.2692H3.346V11.6538H7.126C7.52007 12.6202 8.19547 13.4458 9.06456 14.0235C9.93364 14.6013 10.9563 14.9045 11.9998 14.8938C13.0438 14.9064 14.0673 14.6039 14.9368 14.026C15.8062 13.448 16.4812 12.6213 16.8737 11.6538H20.6537V19.2692Z" fill="#202020" fill-opacity="0.9"/>
</svg>
