<svg width="18" height="18" viewBox="0 0 18 18" fill="none" xmlns="http://www.w3.org/2000/svg">
<path d="M16.0312 1.6875H1.96875C1.59579 1.6875 1.2381 1.83566 0.974381 2.09938C0.710658 2.3631 0.5625 2.72079 0.5625 3.09375V4.3425C0.947382 3.99323 1.44902 3.8006 1.96875 3.8025V3.09375H16.0312V3.8025C16.551 3.8006 17.0526 3.99323 17.4375 4.3425V3.09375C17.4375 2.72079 17.2893 2.3631 17.0256 2.09938C16.7619 1.83566 16.4042 1.6875 16.0312 1.6875ZM16.0312 4.5H1.96875C1.59579 4.5 1.2381 4.64816 0.974381 4.91188C0.710658 5.1756 0.5625 5.53329 0.5625 5.90625V7.155C0.947382 6.80573 1.44902 6.6131 1.96875 6.615V5.90625H16.0312V6.615C16.551 6.6131 17.0526 6.80573 17.4375 7.155V5.90625C17.4375 5.53329 17.2893 5.1756 17.0256 4.91188C16.7619 4.64816 16.4042 4.5 16.0312 4.5ZM16.0312 7.3125H11.8125C11.7861 8.03368 11.4756 8.71515 10.9487 9.2083C10.4218 9.70146 9.72135 9.96627 9 9.945C8.27865 9.96627 7.57816 9.70146 7.05129 9.2083C6.52442 8.71515 6.21391 8.03368 6.1875 7.3125H1.96875C1.59579 7.3125 1.2381 7.46066 0.974381 7.72438C0.710658 7.9881 0.5625 8.34579 0.5625 8.71875V14.9062C0.5625 15.2792 0.710658 15.6369 0.974381 15.9006C1.2381 16.1643 1.59579 16.3125 1.96875 16.3125H16.0312C16.4042 16.3125 16.7619 16.1643 17.0256 15.9006C17.2893 15.6369 17.4375 15.2792 17.4375 14.9062V8.71875C17.4375 8.34579 17.2893 7.9881 17.0256 7.72438C16.7619 7.46066 16.4042 7.3125 16.0312 7.3125ZM16.0312 14.9062H1.96875V8.71875H5.04C5.36018 9.5039 5.90894 10.1747 6.61507 10.6441C7.32121 11.1135 8.15212 11.3599 9 11.3512C9.84822 11.3614 10.6798 11.1157 11.3862 10.6461C12.0927 10.1765 12.6411 9.50481 12.96 8.71875H16.0312V14.9062Z" fill="#202020" fill-opacity="0.9"/>
</svg>
